<svg
   xmlns="http://www.w3.org/2000/svg"
   width="893.53271"
   height="357.16138"
   viewBox="0 0 893.53271 357.16138">
  <g
     transform="translate(-9.8105469,-11.473656)">
    <path
       d="M 129.79688,83.103516 C 103.50283,83.337463 86.801238,86.413211 66.796935,91.01586 33.602915,98.653238 9.8105469,117.05859 9.8105469,117.05859 L 58.183594,366.33984 110.20898,259.55273 c 0,0 28.33834,-5.35187 50.16739,-15.74329 18.8103,-8.95439 44.6129,-19.5069 61.14902,-34.04382 9.94751,-8.74486 17.02158,-21.2604 20.49023,-34.04296 3.56367,-13.13269 3.7264,-26.91183 -0.48437,-39.85157 -2.67365,-8.21615 -8.34697,-16.59742 -15.00391,-22.10547 C 209.39456,99.589704 187.65326,90.442912 165.86133,86.015625 154.6308,83.73401 142.18539,82.993291 129.79688,83.103516 Z m -0.70313,52.728514 c 4.40579,0.0971 8.77833,0.92181 12.72656,2.45899 7.05296,2.74595 13.32623,8.84924 16.29688,15.81054 3.39859,7.96411 3.24784,17.88685 0.16015,25.97656 -2.71554,7.1147 -8.35651,13.8727 -15.32617,16.94141 -8.41701,3.70597 -19.08603,3.34011 -27.58984,-0.16211 -7.10342,-2.92548 -13.4373,-9.06894 -16.457033,-16.13281 -3.340435,-7.81406 -3.272135,-17.52248 -0.322266,-25.49219 2.486769,-6.71857 7.710909,-13.09333 14.197269,-16.13476 4.93217,-2.31268 10.64986,-3.39048 16.31445,-3.26563 z"
       style="fill:#ff5600;stroke:none" />
    <g>
      <path
         style="fill:#ffea00;stroke:none"
         d="m 348.98666,321.57696 h 59.69721 c 0,0 7.09135,-1.5476 12.10079,-11.13273 5.55082,-10.62103 15.16631,-45.17626 15.16631,-45.17626 0,0 17.64293,-16.55404 23.23351,-24.52426 9.68518,-13.80771 15.65937,-26.95713 18.87723,-41.94939 2.90058,-13.51401 2.61932,-27.89403 0,-41.46536 -2.32789,-12.06134 -7.05101,-23.88518 -13.71423,-34.20489 -7.20071,-11.15216 -16.79037,-20.99952 -27.58979,-28.719194 -9.12163,-6.520356 -19.03486,-12.387375 -30.00995,-14.682286 -20.16773,-4.217108 -40.01499,-4.641458 -59.69721,1.452094 -14.22134,4.402881 -28.67868,13.98326 -40.01326,24.846946 -9.58463,9.18644 -17.37368,20.63726 -22.42679,32.91414 -4.95442,12.03711 -7.2034,25.38339 -7.09913,38.39982 0.11777,14.70259 1.4679,24.91346 6.93779,38.56118 3.85785,9.62557 11.04562,21.47909 18.39319,30.97801 5.23528,6.76815 18.07051,18.23185 18.07051,18.23185 0,0 10.13042,35.71866 16.77975,47.43508 3.94818,6.95687 11.29407,9.03525 11.29407,9.03525 z" />
      <path
         style="fill:#ffea00;stroke:none"
         d="m 340.2741,72.623462 c 3.3687,-3.572935 -7.07368,-17.098755 -13.39154,-23.394852 -6.65785,-6.63492 -20.66108,-17.488501 -24.36292,-14.198256 -3.94437,3.505814 7.03723,17.451522 13.55288,23.878884 6.59726,6.507867 20.87977,17.237409 24.20158,13.714224 z" />
      <path
         style="fill:#ffea00;stroke:none"
         d="m 378.67392,66.169709 c -5.4664,0.09905 -7.41747,-19.000797 -7.58316,-28.719198 -0.17116,-10.039596 1.96632,-25.869187 7.26048,-25.976353 5.17567,-0.104768 6.76084,16.201475 6.93777,25.653665 0.1813,9.685806 -0.88053,28.937983 -6.61509,29.041886 z" />
      <path
         style="fill:#ffea00;stroke:none;fill-opacity:1"
         d="m 416.58972,72.300774 c -2.9925,-3.034003 7.20021,-17.602705 13.71422,-24.201571 6.51894,-6.60386 21.38079,-16.603873 24.04023,-14.036912 3.57548,3.451144 -6.67139,18.041839 -13.23019,24.685603 -6.56174,6.64674 -20.62315,17.508095 -24.52426,13.55288 z" />
      <path
         style="fill:#ffea00;stroke:none;fill-opacity:1"
         d="m 344.14635,331.90296 h 68.8938 c 0,0 -0.17877,14.95034 -9.84197,24.52426 -7.25755,7.19049 -15.67523,10.12964 -24.52426,10.16466 -8.8784,0.0351 -17.13967,-2.41482 -24.6856,-10.00331 -10.02958,-10.08615 -9.84197,-24.68561 -9.84197,-24.68561 z" />
    </g>
    <path
       d="m 528.23963,363.84904 h 81.31728 V 245.09999 c 0,0 0.1361,-6.72134 6.0504,-10.97137 4.51662,-3.24566 12.74067,-3.24244 16.21505,-1.53277 14.29908,7.0363 19.84529,27.34777 19.84529,27.34777 v 103.90542 h 81.31728 V 224.60933 c 0,0 -3.26384,-17.41932 -17.10245,-28.23517 -8.22761,-6.43046 -18.20123,-10.9717 -28.39651,-13.23019 -14.59732,-3.23364 -30.18097,-2.87273 -44.85358,0 -9.5168,1.86328 -19.43809,6.24936 -28.88054,12.26213 -9.81217,6.2482 -15.65035,16.77976 -15.65035,16.77976 h -8.87391 l -17.42513,-23.71754 h -43.40148 z"
       style="fill:#ff5600;stroke:none" />
    <path
       d="m 781.38807,138.37106 c 0,0 0.0976,33.55132 0,44.40176 -0.022,2.44792 -2.74514,5.21703 -5.19304,5.19304 -4.1987,-0.0411 -20.02439,0 -20.02439,0 v 38.04604 c 0,0 16.58171,-0.11972 19.93759,-0.0403 2.56433,0.0607 3.99057,3.20672 4.05126,5.6917 0.45248,18.52607 -0.33753,72.03458 0.16134,92.00737 0.15611,6.25004 6.63273,14.12657 8.48451,16.58992 3.64962,4.85497 11.77476,12.16085 18.70458,16.60949 6.06814,3.89548 13.00397,6.4476 19.96528,8.32837 8.33348,2.25149 17.03898,3.58944 25.66964,3.42262 8.25743,-0.15961 16.60924,-1.52205 24.41469,-4.22123 6.73792,-2.33002 14.79039,-7.23869 18.8244,-10.15377 4.03401,-2.91508 6.16071,-5.81845 6.16071,-5.81845 v -29.20635 c 0,0 -8.25722,-1.60856 -12.52192,-2.75194 -4.04251,-1.0838 -9.1682,-2.05975 -12.6718,-4.34915 -3.46929,-2.26699 -5.10464,-5.44205 -7.63574,-8.72363 -2.20353,-2.85689 -6.30248,-9.04631 -6.30248,-9.04631 0,0 -0.009,-47.10754 0,-64.57341 8.8e-4,-1.80167 2.02025,-3.82043 3.82192,-3.82193 9.34523,-0.008 36.10864,0 36.10864,0 v -37.36359 c 0,0 -29.1183,-0.0232 -37.7629,0 -1.85545,0.005 -3.95718,-2.08068 -3.93601,-3.93601 0.15918,-13.95056 0,-56.30209 0,-56.30209 z"
       style="fill:#ff5600;stroke:none" />
  </g>
</svg>
