<?xml version="1.0" encoding="UTF-8" standalone="no"?>
<svg
   xmlns:dc="http://purl.org/dc/elements/1.1/"
   xmlns:cc="http://creativecommons.org/ns#"
   xmlns:rdf="http://www.w3.org/1999/02/22-rdf-syntax-ns#"
   xmlns:svg="http://www.w3.org/2000/svg"
   xmlns="http://www.w3.org/2000/svg"
   xmlns:sodipodi="http://sodipodi.sourceforge.net/DTD/sodipodi-0.dtd"
   xmlns:inkscape="http://www.inkscape.org/namespaces/inkscape"
   inkscape:version="1.0 (4035a4fb49, 2020-05-01)"
   height="512"
   width="344.71201"
   sodipodi:docname="Pin.svg"
   xml:space="preserve"
   style="opacity:1"
   viewBox="0 0 344.71201 512"
   y="0px"
   x="0px"
   id="_x32_"
   version="1.1"><metadata
   id="metadata13"><rdf:RDF><cc:Work
       rdf:about=""><dc:format>image/svg+xml</dc:format><dc:type
         rdf:resource="http://purl.org/dc/dcmitype/StillImage" /><dc:title></dc:title></cc:Work></rdf:RDF></metadata><defs
   id="defs11" /><sodipodi:namedview
   inkscape:current-layer="_x32_"
   inkscape:window-maximized="1"
   inkscape:window-y="-8"
   inkscape:window-x="-8"
   inkscape:cy="256"
   inkscape:cx="172.356"
   inkscape:zoom="1.6191406"
   fit-margin-bottom="0"
   fit-margin-right="0"
   fit-margin-left="0"
   fit-margin-top="0"
   showguides="false"
   showgrid="false"
   id="namedview9"
   inkscape:window-height="996"
   inkscape:window-width="1920"
   inkscape:pageshadow="2"
   inkscape:pageopacity="0"
   guidetolerance="10"
   gridtolerance="10"
   objecttolerance="10"
   borderopacity="1"
   bordercolor="#666666"
   pagecolor="#ffffff" />
<style
   id="style2"
   type="text/css">
	.st0{fill:#4B4B4B;}
</style>
<g
   transform="translate(-83.644)"
   id="g6">
	<path
   id="path4"
   style="fill:#4b4b4b"
   d="M 256,0 C 160.798,0 83.644,77.155 83.644,172.356 c 0,97.162 48.158,117.862 101.386,182.495 C 248.696,432.161 256,512 256,512 c 0,0 7.304,-79.839 70.97,-157.148 C 380.198,290.218 428.356,269.518 428.356,172.357 428.356,77.155 351.202,0 256,0 Z m 0,231.921 c -32.897,0 -59.564,-26.668 -59.564,-59.564 0,-32.896 26.668,-59.564 59.564,-59.564 32.896,0 59.564,26.668 59.564,59.564 0,32.896 -26.668,59.564 -59.564,59.564 z"
   class="st0" />
</g>
</svg>
